<?xml version="1.0" encoding="utf-8"?>
<!-- Generator: Adobe Illustrator 12.0.0, SVG Export Plug-In . SVG Version: 6.00 Build 51448)  -->
<!DOCTYPE svg PUBLIC "-//W3C//DTD SVG 1.1//EN" "http://www.w3.org/Graphics/SVG/1.1/DTD/svg11.dtd" [
	<!ENTITY ns_svg "http://www.w3.org/2000/svg">
	<!ENTITY ns_xlink "http://www.w3.org/1999/xlink">
]>
<svg  version="1.1" xmlns="&ns_svg;" xmlns:xlink="&ns_xlink;" width="604.469" height="608.283" viewBox="0 0 604.469 608.283"
	 overflow="visible" enable-background="new 0 0 604.469 608.283" xml:space="preserve">
<g id="Layer_6">
	<path fill="#666667" stroke="#000000" stroke-width="3" stroke-linejoin="bevel" d="M302.445,606.783
		c112.556,0,216.563-36.606,300.764-98.563l-31.319-48.438c0,0-20.5,18.5-41.5,14.5s-31.872-25.256-31.872-25.256
		c-57.98,32.528-124.86,51.076-196.072,51.076h-0.792c-71.212,0-138.092-18.548-196.072-51.076c0,0-10.872,21.256-31.872,25.256
		s-41.5-14.5-41.5-14.5l-31.32,48.438c84.201,61.956,188.208,98.563,300.764,98.563H302.445z"/>
	<path fill="#B3B2B2" stroke="#000000" stroke-width="3" stroke-linejoin="bevel" d="M302.445,505.104h-0.792
		c-67.945,0-134.991-17.103-194.267-49.42c-4.684,7.008-15.574,20.241-32.742,23.512c-17.194,3.274-33.54-6.481-41.222-12.08
		c-4.437,6.862-21.803,33.72-25.729,39.79c85.964,62.046,187.479,94.878,293.959,94.878h0.792
		c106.48,0,207.995-32.832,293.959-94.878c-3.925-6.07-21.291-32.928-25.729-39.79c-7.683,5.599-24.027,15.354-41.222,12.08
		c-17.168-3.271-28.059-16.504-32.742-23.512C437.437,488.001,370.391,505.104,302.445,505.104z"/>
	<g>
		<path d="M87.531,477.327l-0.091-0.051l-6.676-0.123l0.941-3.469l8.373,0.184l3.397,1.915l-16.598,29.444l-3.851-2.171
			L87.531,477.327z"/>
		<path d="M119.106,493.206l-11.582-5.672l-4.941,7.134c0.747,0.25,1.446,0.477,2.567,1.025c2.381,1.167,4.418,2.801,5.737,4.837
			c1.742,2.474,2.399,6.097,0.478,10.02c-2.904,5.931-9.794,8.058-16.378,4.832c-3.316-1.623-5.614-3.906-6.651-5.572l2.56-2.626
			c0.895,1.364,2.913,3.511,5.714,4.883c3.83,1.876,8.427,1,10.393-3.132c1.967-4.017,0.654-8.075-5.37-11.025
			c-1.775-0.869-3.198-1.393-4.41-1.755l9.051-13.517l14.524,7.113L119.106,493.206z"/>
		<path d="M145.963,530.991c0.984,1.153,3.38,3.33,6.436,4.356c5.521,1.854,8.471-1.049,9.333-3.776
			c1.458-4.503-1.939-7.783-6.129-9.19l-2.415-0.812l1.093-3.253l2.416,0.812c3.155,1.06,7.694,0.774,8.969-3.021
			c0.861-2.563-0.004-5.377-3.997-6.719c-2.563-0.861-5.409-0.555-7.12-0.033l-0.124-3.552c2.139-0.653,5.807-0.792,9.257,0.367
			c6.31,2.119,7.91,6.826,6.602,10.72c-1.126,3.353-4.091,5.483-8.465,5.604l-0.033,0.099c3.695,2.064,5.906,6.098,4.399,10.584
			c-1.722,5.126-7.271,8.254-14.912,5.688c-3.599-1.209-6.373-3.402-7.602-4.968L145.963,530.991z"/>
		<path d="M178.968,547.357c-6.372-1.735-9.111-8.895-6.274-19.709c2.992-10.988,9.384-15.66,16.007-13.857
			c6.824,1.858,9.121,9.059,6.292,19.444c-3.02,11.088-8.851,16.075-15.975,14.136L178.968,547.357z M180.098,544
			c4.465,1.216,8.057-3.465,10.325-11.793c2.186-8.028,1.614-13.843-3.002-15.1c-4.014-1.093-8.016,3.314-10.243,11.492
			c-2.409,8.452-1.194,14.28,2.87,15.387L180.098,544z"/>
		<path d="M241.813,559.335l1.236-9.12l-15.562-2.109l0.398-2.938l17.849-19.41l4.896,0.663l-2.829,20.869l4.689,0.636l-0.475,3.504
			l-4.689-0.636l-1.236,9.121L241.813,559.335z M243.524,546.711l1.522-11.233c0.238-1.752,0.527-3.497,0.867-5.235l-0.154-0.021
			c-1.296,1.818-2.316,3.149-3.46,4.621l-9.737,10.277l-0.014,0.103L243.524,546.711z"/>
		<path d="M276.812,532.59l-12.857-0.994l-1.958,8.454c0.786-0.044,1.52-0.091,2.764,0.005c2.644,0.205,5.14,0.972,7.118,2.376
			c2.532,1.656,4.48,4.78,4.144,9.135c-0.509,6.584-6.126,11.104-13.437,10.54c-3.681-0.285-6.66-1.559-8.238-2.724l1.409-3.386
			c1.335,0.938,4.003,2.188,7.114,2.428c4.251,0.329,8.201-2.182,8.502-6.748c0.345-4.459-2.374-7.747-9.062-8.264
			c-1.97-0.152-3.486-0.113-4.746-0.002l3.42-15.904l16.124,1.247L276.812,532.59z"/>
		<path d="M343.142,530.656c-0.938,0.019-2.122,0.212-3.403,0.517c-7.122,1.684-10.461,7.201-10.817,12.859l0.104-0.008
			c1.443-2.299,4.163-4.275,7.896-4.557c5.963-0.448,10.49,3.592,10.981,10.125c0.469,6.223-3.303,12.242-10.354,12.772
			c-7.156,0.538-12.296-4.707-12.955-13.471c-0.499-6.637,1.44-12.05,4.558-15.674c2.594-2.959,6.198-4.95,10.411-5.789
			c1.332-0.309,2.47-0.446,3.299-0.509L343.142,530.656z M337.386,558.831c3.89-0.292,6.288-3.758,5.926-8.58
			c-0.363-4.822-3.33-7.52-7.529-7.204c-2.749,0.207-5.217,2.062-6.273,4.644c-0.221,0.538-0.381,1.176-0.319,2.006
			c0.47,5.544,3.374,9.498,8.145,9.139L337.386,558.831z"/>
		<path d="M363.666,559.642c-6.546,0.873-11.849-4.663-13.43-15.73c-1.505-11.288,2.573-18.075,9.377-18.982
			c7.01-0.935,11.921,4.811,13.344,15.479c1.52,11.392-1.92,18.25-9.239,19.227L363.666,559.642z M363.405,556.109
			c4.587-0.612,6.081-6.32,4.94-14.876c-1.1-8.247-3.884-13.384-8.625-12.752c-4.124,0.55-6.103,6.165-4.982,14.566
			c1.059,8.725,4.44,13.625,8.615,13.068L363.405,556.109z"/>
		<path d="M424.944,511.645l0.786,2.911l-6.184,33.556l-4.519,1.22l6.313-32.675l-0.026-0.101l-15.965,4.311l-0.989-3.665
			L424.944,511.645z"/>
		<path d="M448.085,508.074l-12.233,4.08l1.481,8.551c0.707-0.346,1.365-0.675,2.549-1.069c2.516-0.839,5.113-1.103,7.481-0.577
			c2.977,0.542,5.986,2.663,7.368,6.807c2.09,6.265-1.33,12.613-8.285,14.933c-3.503,1.168-6.742,1.152-8.649,0.692l-0.017-3.667
			c1.595,0.345,4.538,0.459,7.498-0.527c4.045-1.35,6.708-5.198,5.211-9.522c-1.415-4.242-5.197-6.215-11.561-4.093
			c-1.875,0.625-3.256,1.251-4.374,1.843l-3.028-15.983l15.342-5.116L448.085,508.074z"/>
		<path d="M496.029,517.303c0.911-0.386,1.917-0.934,3.229-1.804c2.247-1.441,4.014-3.517,4.923-6.042
			c1.122-2.802,1.273-6.173,0.081-10.046l-0.14,0.068c-0.682,2.877-2.521,5.276-5.605,6.779c-5.47,2.664-10.979,0.258-13.53-4.978
			c-2.778-5.703-1.03-12.802,5.188-15.83s12.488,0.106,16.291,7.913c3.256,6.686,3.289,12.453,1.731,16.855
			c-1.244,3.383-3.764,6.403-6.854,8.371c-1.405,0.916-2.715,1.67-3.673,2.078L496.029,517.303z M491.326,488.766
			c-3.46,1.685-4.435,5.977-2.34,10.278c1.845,3.786,5.434,5.335,8.986,3.604c2.758-1.344,4.248-3.746,4.482-6.116
			c0.005-0.465-0.083-1.001-0.401-1.655c-2.504-5.259-6.38-8.229-10.682-6.135L491.326,488.766z"/>
		<path d="M528.764,504.673c-5.76,3.23-12.733,0.048-18.294-9.652c-5.571-9.933-4.29-17.746,1.696-21.104
			c6.168-3.46,12.854,0.063,18.121,9.45c5.622,10.023,4.962,17.668-1.479,21.28L528.764,504.673z M527.215,501.487
			c4.036-2.265,3.315-8.12-0.908-15.648c-4.07-7.257-8.556-11.001-12.728-8.66c-3.629,2.035-3.392,7.983,0.755,15.376
			c4.209,7.716,9.162,11.019,12.835,8.958L527.215,501.487z"/>
	</g>
	
		<line fill="none" stroke="#000000" stroke-width="3" stroke-linejoin="bevel" x1="301.653" y1="606.783" x2="301.653" y2="566.144"/>
	<line fill="none" stroke="#000000" stroke-width="3" x1="72.709" y1="552.283" x2="91.209" y2="515.783"/>
	<line fill="none" stroke="#000000" stroke-width="3" x1="112.209" y1="571.783" x2="128.209" y2="533.283"/>
	<line fill="none" stroke="#000000" stroke-width="3" x1="158.709" y1="587.283" x2="171.209" y2="547.783"/>
	<line fill="none" stroke="#000000" stroke-width="3" x1="201.209" y1="596.783" x2="208.209" y2="556.283"/>
	<line fill="none" stroke="#000000" stroke-width="3" x1="249.209" y1="604.283" x2="253.209" y2="564.283"/>
	<line fill="none" stroke="#000000" stroke-width="3" x1="32.542" y1="530.783" x2="56.542" y2="497.116"/>
	<g>
		<path fill="#666667" stroke="#000000" stroke-width="3" d="M302.445,512.843h-0.792c-67.305,0-134.121-16.514-193.223-47.755
			l-2.337,4.42c59.82,31.621,127.444,48.335,195.56,48.335h0.792c68.116,0,135.74-16.714,195.56-48.335l-2.336-4.42
			C436.565,496.329,369.75,512.843,302.445,512.843z"/>
	</g>
	<line fill="none" stroke="#000000" stroke-width="3" stroke-linejoin="bevel" x1="531.39" y1="552.283" x2="512.89" y2="515.783"/>
	<line fill="none" stroke="#000000" stroke-width="3" stroke-linejoin="bevel" x1="491.89" y1="571.783" x2="475.89" y2="533.283"/>
	<line fill="none" stroke="#000000" stroke-width="3" stroke-linejoin="bevel" x1="445.39" y1="587.283" x2="432.89" y2="547.783"/>
	<line fill="none" stroke="#000000" stroke-width="3" stroke-linejoin="bevel" x1="402.89" y1="596.783" x2="395.89" y2="556.283"/>
	<line fill="none" stroke="#000000" stroke-width="3" stroke-linejoin="bevel" x1="354.89" y1="604.283" x2="350.89" y2="564.283"/>
	
		<line fill="none" stroke="#000000" stroke-width="3" stroke-linejoin="bevel" x1="571.556" y1="530.783" x2="547.556" y2="497.116"/>
</g>
<g id="Layer_5">
</g>
<g id="Square">
</g>
<g id="compasses">
</g>
<g id="knob">
	<g>
		<circle fill="#B3B2B2" stroke="#000000" stroke-width="3" stroke-linejoin="round" cx="300.378" cy="302.783" r="94"/>
		<g>
			
				<line fill="none" stroke="#666667" stroke-width="5" stroke-linecap="round" stroke-linejoin="round" x1="300.378" y1="213.117" x2="300.378" y2="391.783"/>
			
				<line fill="none" stroke="#666667" stroke-width="5" stroke-linecap="round" stroke-linejoin="round" x1="211.045" y1="302.45" x2="389.711" y2="302.45"/>
			
				<line fill="none" stroke="#666667" stroke-width="5" stroke-linecap="round" stroke-linejoin="round" x1="237.21" y1="365.618" x2="363.546" y2="239.282"/>
			
				<line fill="none" stroke="#666667" stroke-width="5" stroke-linecap="round" stroke-linejoin="round" x1="363.546" y1="365.619" x2="237.21" y2="239.282"/>
			
				<line fill="none" stroke="#666667" stroke-width="5" stroke-linecap="round" stroke-linejoin="round" x1="266.192" y1="219.917" x2="334.564" y2="384.983"/>
			
				<line fill="none" stroke="#666667" stroke-width="5" stroke-linecap="round" stroke-linejoin="round" x1="217.845" y1="336.637" x2="382.911" y2="268.264"/>
			
				<line fill="none" stroke="#666667" stroke-width="5" stroke-linecap="round" stroke-linejoin="round" x1="266.192" y1="384.983" x2="334.564" y2="219.917"/>
			
				<line fill="none" stroke="#666667" stroke-width="5" stroke-linecap="round" stroke-linejoin="round" x1="382.911" y1="336.638" x2="217.846" y2="268.264"/>
			
				<line fill="none" stroke="#666667" stroke-width="5" stroke-linecap="round" stroke-linejoin="round" x1="285.509" y1="228.031" x2="315.137" y2="376.979"/>
			
				<line fill="none" stroke="#666667" stroke-width="5" stroke-linecap="round" stroke-linejoin="round" x1="225.849" y1="317.319" x2="374.797" y2="287.691"/>
			
				<line fill="none" stroke="#666667" stroke-width="5" stroke-linecap="round" stroke-linejoin="round" x1="258.137" y1="365.642" x2="342.509" y2="239.369"/>
			
				<line fill="none" stroke="#666667" stroke-width="5" stroke-linecap="round" stroke-linejoin="round" x1="363.459" y1="344.692" x2="237.187" y2="260.319"/>
			
				<line fill="none" stroke="#666667" stroke-width="5" stroke-linecap="round" stroke-linejoin="round" x1="258.137" y1="239.369" x2="342.51" y2="365.642"/>
			
				<line fill="none" stroke="#666667" stroke-width="5" stroke-linecap="round" stroke-linejoin="round" x1="237.187" y1="344.692" x2="363.459" y2="260.319"/>
			
				<line fill="none" stroke="#666667" stroke-width="5" stroke-linecap="round" stroke-linejoin="round" x1="285.509" y1="376.979" x2="315.137" y2="228.031"/>
			
				<line fill="none" stroke="#666667" stroke-width="5" stroke-linecap="round" stroke-linejoin="round" x1="374.797" y1="317.32" x2="225.85" y2="287.691"/>
		</g>
		<g>
			
				<line fill="none" stroke="#000000" stroke-width="3" stroke-linecap="round" stroke-linejoin="round" x1="300.378" y1="213.117" x2="300.378" y2="391.783"/>
			
				<line fill="none" stroke="#000000" stroke-width="3" stroke-linecap="round" stroke-linejoin="round" x1="211.045" y1="302.45" x2="389.711" y2="302.45"/>
			
				<line fill="none" stroke="#000000" stroke-width="3" stroke-linecap="round" stroke-linejoin="round" x1="237.21" y1="365.618" x2="363.546" y2="239.282"/>
			
				<line fill="none" stroke="#000000" stroke-width="3" stroke-linecap="round" stroke-linejoin="round" x1="363.546" y1="365.619" x2="237.21" y2="239.282"/>
			
				<line fill="none" stroke="#000000" stroke-width="3" stroke-linecap="round" stroke-linejoin="round" x1="266.192" y1="219.917" x2="334.564" y2="384.983"/>
			
				<line fill="none" stroke="#000000" stroke-width="3" stroke-linecap="round" stroke-linejoin="round" x1="217.845" y1="336.637" x2="382.911" y2="268.264"/>
			
				<line fill="none" stroke="#000000" stroke-width="3" stroke-linecap="round" stroke-linejoin="round" x1="266.192" y1="384.983" x2="334.564" y2="219.917"/>
			
				<line fill="none" stroke="#000000" stroke-width="3" stroke-linecap="round" stroke-linejoin="round" x1="382.911" y1="336.638" x2="217.846" y2="268.264"/>
			
				<line fill="none" stroke="#000000" stroke-width="3" stroke-linecap="round" stroke-linejoin="round" x1="285.509" y1="228.031" x2="315.137" y2="376.979"/>
			
				<line fill="none" stroke="#000000" stroke-width="3" stroke-linecap="round" stroke-linejoin="round" x1="225.849" y1="317.319" x2="374.797" y2="287.691"/>
			
				<line fill="none" stroke="#000000" stroke-width="3" stroke-linecap="round" stroke-linejoin="round" x1="258.137" y1="365.642" x2="342.509" y2="239.369"/>
			
				<line fill="none" stroke="#000000" stroke-width="3" stroke-linecap="round" stroke-linejoin="round" x1="363.459" y1="344.692" x2="237.187" y2="260.319"/>
			
				<line fill="none" stroke="#000000" stroke-width="3" stroke-linecap="round" stroke-linejoin="round" x1="258.137" y1="239.369" x2="342.51" y2="365.642"/>
			
				<line fill="none" stroke="#000000" stroke-width="3" stroke-linecap="round" stroke-linejoin="round" x1="237.187" y1="344.692" x2="363.459" y2="260.319"/>
			
				<line fill="none" stroke="#000000" stroke-width="3" stroke-linecap="round" stroke-linejoin="round" x1="285.509" y1="376.979" x2="315.137" y2="228.031"/>
			
				<line fill="none" stroke="#000000" stroke-width="3" stroke-linecap="round" stroke-linejoin="round" x1="374.797" y1="317.32" x2="225.85" y2="287.691"/>
		</g>
		<circle fill="#B3B2B2" stroke="#B3B2B2" cx="300.378" cy="302.616" r="50.29"/>
		<circle fill="#8C8C8C" stroke="#000000" stroke-width="3" stroke-linejoin="round" cx="300.378" cy="302.616" r="47"/>
		<path fill="none" stroke="#B3B2B2" stroke-width="5" stroke-linecap="round" stroke-linejoin="round" d="M280.211,331.533
			c0,0-0.25-8.625,5.625-16s7.625-7.25,7.75-10.75s2.5-3.625,2.5-7s0-17.5,0-17.5s-26.25-7-26.25,7s11.375,9.125,11.875,9.125
			s9.5-3.625,9.25-7.625s-9.75-5.375-13.75-3.25s1.625,4.875,4,4.625s8.375-3.25,6.25-4.25"/>
		<path fill="none" stroke="#B3B2B2" stroke-width="5" stroke-linecap="round" stroke-linejoin="round" d="M299.836,320.158
			c0,0-6.25,1.125-8-1.25s-0.958-5.625,1.042-11.5"/>
		<path stroke="#B3B2B2" stroke-width="5" stroke-linecap="round" stroke-linejoin="round" d="M300.211,325.283
			c-4,0-13.75-1.5-14.25,0.25s-1.855,8.379,14.625,11.375C303.336,337.408,300.211,325.283,300.211,325.283z"/>
		<path stroke="#B3B2B2" stroke-width="5" stroke-linecap="round" stroke-linejoin="round" d="M290.961,341.033
			c0,0,1.25-4.625,7.375-4.625"/>
		<path fill="none" stroke="#B3B2B2" stroke-width="5" stroke-linecap="round" stroke-linejoin="round" d="M320.343,331.533
			c0,0,0.25-8.625-5.625-16s-7.625-7.25-7.75-10.75s-2.5-3.625-2.5-7s0-17.5,0-17.5s26.25-7,26.25,7s-11.375,9.125-11.875,9.125
			s-9.5-3.625-9.25-7.625s9.75-5.375,13.75-3.25s-1.625,4.875-4,4.625s-8.375-3.25-6.25-4.25"/>
		<path fill="none" stroke="#B3B2B2" stroke-width="5" stroke-linecap="round" stroke-linejoin="round" d="M300.718,320.158
			c0,0,6.25,1.125,8-1.25s0.958-5.625-1.042-11.5"/>
		<path stroke="#B3B2B2" stroke-width="5" stroke-linecap="round" stroke-linejoin="round" d="M300.343,325.283
			c4,0,13.75-1.5,14.25,0.25s1.855,8.379-14.625,11.375C297.218,337.408,300.343,325.283,300.343,325.283z"/>
		<path stroke="#B3B2B2" stroke-width="5" stroke-linecap="round" stroke-linejoin="round" d="M309.593,341.033
			c0,0-1.25-4.625-7.375-4.625"/>
		<path fill="none" stroke="#000000" stroke-width="3" stroke-linecap="round" stroke-linejoin="round" d="M280.211,331.533
			c0,0-0.25-8.625,5.625-16s7.625-7.25,7.75-10.75s2.5-3.625,2.5-7s0-17.5,0-17.5s-26.25-7-26.25,7s11.375,9.125,11.875,9.125
			s9.5-3.625,9.25-7.625s-9.75-5.375-13.75-3.25s1.625,4.875,4,4.625s8.375-3.25,6.25-4.25"/>
		<path fill="none" stroke="#000000" stroke-width="3" stroke-linecap="round" stroke-linejoin="round" d="M299.836,320.158
			c0,0-6.25,1.125-8-1.25s-0.958-5.625,1.042-11.5"/>
		<path stroke="#000000" stroke-width="3" stroke-linecap="round" stroke-linejoin="round" d="M300.211,325.283
			c-4,0-13.75-1.5-14.25,0.25s-1.855,8.379,14.625,11.375C303.336,337.408,300.211,325.283,300.211,325.283z"/>
		<path stroke="#000000" stroke-width="3" stroke-linecap="round" stroke-linejoin="round" d="M290.961,341.033
			c0,0,1.25-4.625,7.375-4.625"/>
		<path fill="none" stroke="#000000" stroke-width="3" stroke-linecap="round" stroke-linejoin="round" d="M320.343,331.533
			c0,0,0.25-8.625-5.625-16s-7.625-7.25-7.75-10.75s-2.5-3.625-2.5-7s0-17.5,0-17.5s26.25-7,26.25,7s-11.375,9.125-11.875,9.125
			s-9.5-3.625-9.25-7.625s9.75-5.375,13.75-3.25s-1.625,4.875-4,4.625s-8.375-3.25-6.25-4.25"/>
		<path fill="none" stroke="#000000" stroke-width="3" stroke-linecap="round" stroke-linejoin="round" d="M300.718,320.158
			c0,0,6.25,1.125,8-1.25s0.958-5.625-1.042-11.5"/>
		<path stroke="#000000" stroke-width="3" stroke-linecap="round" stroke-linejoin="round" d="M300.343,325.283
			c4,0,13.75-1.5,14.25,0.25s1.855,8.379-14.625,11.375C297.218,337.408,300.343,325.283,300.343,325.283z"/>
		<path stroke="#000000" stroke-width="3" stroke-linecap="round" stroke-linejoin="round" d="M309.593,341.033
			c0,0-1.25-4.625-7.375-4.625"/>
		<path id="outline_1_" fill="#666667" stroke="#000000" stroke-width="3" stroke-linecap="round" d="M302.068,534.68
			l225.423-225.423c0,0-4.896-5.807-16.729-6.14c-11.833-0.333-26.833,12.001-36.333,12.167s-26.088-6.28-26.088-6.28
			L301.815,455.528h-0.324L154.966,309.004c0,0-16.588,6.446-26.088,6.28s-24.5-12.5-36.333-12.167s-16.729,6.14-16.729,6.14
			L301.238,534.68H302.068z"/>
		<path fill="#B3B2B2" stroke="#000000" stroke-width="3" stroke-linecap="round" d="M492.383,314.24
			c-6.376,3.059-12.397,5.947-17.867,6.043c-7.935,0.139-19.371-3.523-24.9-5.482c-4.385,4.385-145.729,145.728-145.729,145.728
			h-4.467c0,0-141.343-141.343-145.728-145.728c-5.529,1.959-16.966,5.621-24.901,5.482c-5.469-0.096-11.491-2.984-17.866-6.043
			c-6.426-3.083-13.07-6.271-18.239-6.125c-4.029,0.113-6.965,0.957-9.065,1.876c8.103,8.103,212.081,212.08,218.033,218.032
			c5.953-5.952,209.93-209.93,218.033-218.032c-2.1-0.919-5.036-1.763-9.065-1.876C505.452,307.97,498.808,311.157,492.383,314.24z"
			/>
		<g id="left_swirls_and_ticks_3_">
			<g id="Ticks_3_">
				
					<line fill="none" stroke="#000000" stroke-width="3" stroke-linecap="round" x1="119.733" y1="344.928" x2="127.711" y2="336.949"/>
				
					<line fill="none" stroke="#000000" stroke-width="3" stroke-linecap="round" x1="221.733" y1="446.928" x2="229.711" y2="438.949"/>
				
					<line fill="none" stroke="#000000" stroke-width="3" stroke-linecap="round" x1="238.733" y1="463.928" x2="251.794" y2="450.867"/>
				
					<line fill="none" stroke="#000000" stroke-width="3" stroke-linecap="round" x1="272.733" y1="497.928" x2="285.794" y2="484.867"/>
				
					<line fill="none" stroke="#000000" stroke-width="3" stroke-linecap="round" x1="255.733" y1="480.928" x2="263.711" y2="472.949"/>
				
					<line fill="none" stroke="#000000" stroke-width="3" stroke-linecap="round" x1="289.733" y1="514.928" x2="297.711" y2="506.949"/>
				
					<line fill="none" stroke="#000000" stroke-width="3" stroke-linecap="round" x1="136.733" y1="361.928" x2="149.794" y2="348.867"/>
				
					<line fill="none" stroke="#000000" stroke-width="3" stroke-linecap="round" x1="102.733" y1="327.928" x2="110.711" y2="319.949"/>
				
					<line fill="none" stroke="#000000" stroke-width="3" stroke-linecap="round" x1="153.733" y1="378.928" x2="161.711" y2="370.949"/>
				
					<line fill="none" stroke="#000000" stroke-width="3" stroke-linecap="round" x1="153.733" y1="378.928" x2="161.711" y2="370.949"/>
				
					<line fill="none" stroke="#000000" stroke-width="3" stroke-linecap="round" x1="170.733" y1="395.928" x2="183.794" y2="382.867"/>
				
					<line fill="none" stroke="#000000" stroke-width="3" stroke-linecap="round" x1="204.733" y1="429.928" x2="217.794" y2="416.867"/>
				
					<line fill="none" stroke="#000000" stroke-width="3" stroke-linecap="round" x1="187.733" y1="412.928" x2="195.711" y2="404.949"/>
			</g>
		</g>
		<g id="left_swirls_and_ticks_2_">
			<g id="Ticks_2_">
				
					<line fill="none" stroke="#000000" stroke-width="3" stroke-linecap="round" x1="483.711" y1="344.928" x2="475.732" y2="336.949"/>
				
					<line fill="none" stroke="#000000" stroke-width="3" stroke-linecap="round" x1="381.711" y1="446.928" x2="373.732" y2="438.949"/>
				
					<line fill="none" stroke="#000000" stroke-width="3" stroke-linecap="round" x1="364.711" y1="463.928" x2="351.65" y2="450.867"/>
				
					<line fill="none" stroke="#000000" stroke-width="3" stroke-linecap="round" x1="330.711" y1="497.928" x2="317.65" y2="484.867"/>
				
					<line fill="none" stroke="#000000" stroke-width="3" stroke-linecap="round" x1="347.711" y1="480.928" x2="339.732" y2="472.949"/>
				
					<line fill="none" stroke="#000000" stroke-width="3" stroke-linecap="round" x1="313.711" y1="514.928" x2="305.732" y2="506.949"/>
				
					<line fill="none" stroke="#000000" stroke-width="3" stroke-linecap="round" x1="466.711" y1="361.928" x2="453.65" y2="348.867"/>
				
					<line fill="none" stroke="#000000" stroke-width="3" stroke-linecap="round" x1="500.711" y1="327.928" x2="492.732" y2="319.949"/>
				
					<line fill="none" stroke="#000000" stroke-width="3" stroke-linecap="round" x1="449.711" y1="378.928" x2="441.732" y2="370.949"/>
				
					<line fill="none" stroke="#000000" stroke-width="3" stroke-linecap="round" x1="449.711" y1="378.928" x2="441.732" y2="370.949"/>
				
					<line fill="none" stroke="#000000" stroke-width="3" stroke-linecap="round" x1="432.711" y1="395.928" x2="419.65" y2="382.867"/>
				
					<line fill="none" stroke="#000000" stroke-width="3" stroke-linecap="round" x1="398.711" y1="429.928" x2="385.65" y2="416.867"/>
				
					<line fill="none" stroke="#000000" stroke-width="3" stroke-linecap="round" x1="415.711" y1="412.928" x2="407.732" y2="404.949"/>
			</g>
		</g>
		<g id="left_compass_1_">
			<path fill="#B3B2B2" stroke="#000000" stroke-width="4" stroke-linecap="round" stroke-linejoin="round" d="M84.755,520.441
				L270.41,39.19l52.201,20.106l-57.479,148.455c0,0-16.087,5.699-27.42,13.032s-22,18.667-22,18.667L84.755,520.441z"/>
			<path fill="#8C8C8C" stroke="#000000" stroke-width="3" stroke-linecap="round" stroke-linejoin="round" d="M204.331,235.165
				l70.566-182.51l35.496,13.672l-52.431,132.457c0,0-18,5-28,11.5S204.331,235.165,204.331,235.165z"/>
		</g>
		<g id="right_compass_1_">
			<path fill="#B3B2B2" stroke="#000000" stroke-width="4" stroke-linecap="round" stroke-linejoin="round" d="M518.61,520.441
				L332.956,39.19l-52.201,20.106l57.479,148.455c0,0,16.087,5.699,27.42,13.032s22,18.667,22,18.667L518.61,520.441z"/>
			<path fill="#8C8C8C" stroke="#000000" stroke-width="3" stroke-linecap="round" stroke-linejoin="round" d="M399.035,235.165
				l-70.566-182.51l-35.496,13.672l52.431,132.457c0,0,18,5,28,11.5S399.035,235.165,399.035,235.165z"/>
		</g>
		<circle id="outer_circle_5_" fill="#8C8C8C" stroke="#000000" stroke-width="4" cx="301.711" cy="39.117" r="37.117"/>
		
			<circle id="outer_circle_4_" fill="#B3B2B2" stroke="#000000" stroke-width="3" stroke-linecap="round" stroke-linejoin="round" cx="301.711" cy="39.117" r="27.837"/>
		
			<circle id="outer_circle_1_" fill="#8C8C8C" stroke="#000000" stroke-width="3" stroke-linecap="round" stroke-linejoin="round" cx="301.711" cy="39.117" r="13.919"/>
	</g>
</g>
</svg>
